<svg width="75" height="32" viewBox="0 0 75 32" fill="none" xmlns="http://www.w3.org/2000/svg">
<g clip-path="url(#clip0_1_6)">
<path d="M12.646 29V26.746H11.204V29H10.595V24.1H11.204V26.228H12.646V24.1H13.255V29H12.646ZM16.5506 29L16.2846 27.761H14.9196L14.6466 29H14.0236L15.2066 24.1H16.0116L17.1736 29H16.5506ZM15.5986 24.562L15.0316 27.236H16.1726L15.5986 24.562ZM19.5816 29L18.5106 24.618V29H17.9436V24.1H18.9376L20.0156 28.482V24.1H20.5826V29H19.5816ZM24.3338 27.894C24.3338 28.2953 24.2404 28.58 24.0538 28.748C23.8718 28.916 23.5684 29 23.1438 29H21.7718V24.1H23.0598C23.4798 24.1 23.7971 24.1863 24.0118 24.359C24.2264 24.527 24.3338 24.8047 24.3338 25.192V27.894ZM23.7248 25.129C23.7248 24.975 23.6781 24.8537 23.5848 24.765C23.4914 24.6717 23.3678 24.625 23.2138 24.625H22.3808V28.475H23.2068C23.3841 28.475 23.5148 28.4353 23.5988 28.356C23.6828 28.272 23.7248 28.1413 23.7248 27.964V25.129ZM28.0953 29V24.604L27.3463 27.355H26.7653L26.0163 24.604V29H25.4563V24.1H26.4433L27.0803 26.606L27.7103 24.1H28.6763V29H28.0953ZM31.9725 29L31.7065 27.761H30.3415L30.0685 29H29.4455L30.6285 24.1H31.4335L32.5955 29H31.9725ZM31.0205 24.562L30.4535 27.236H31.5945L31.0205 24.562ZM35.9275 27.894C35.9275 28.2953 35.8342 28.58 35.6475 28.748C35.4655 28.916 35.1622 29 34.7375 29H33.3655V24.1H34.6535C35.0735 24.1 35.3908 24.1863 35.6055 24.359C35.8202 24.527 35.9275 24.8047 35.9275 25.192V27.894ZM35.3185 25.129C35.3185 24.975 35.2718 24.8537 35.1785 24.765C35.0852 24.6717 34.9615 24.625 34.8075 24.625H33.9745V28.475H34.8005C34.9778 28.475 35.1085 28.4353 35.1925 28.356C35.2765 28.272 35.3185 28.1413 35.3185 27.964V25.129ZM37.0501 29V24.1H39.3461V24.611H37.6591V26.214H39.1711V26.725H37.6591V28.489H39.3461V29H37.0501ZM41.897 29V28.489H42.387V24.611H41.897V24.1H43.486V24.611H42.996V28.489H43.486V29H41.897ZM46.0367 29L44.9657 24.618V29H44.3987V24.1H45.3927L46.4707 28.482V24.1H47.0377V29H46.0367ZM49.7652 29V28.489H50.2552V24.611H49.7652V24.1H51.3542V24.611H50.8642V28.489H51.3542V29H49.7652ZM53.9049 29L52.8339 24.618V29H52.2669V24.1H53.2609L54.3389 28.482V24.1H54.9059V29H53.9049ZM58.657 27.894C58.657 28.2953 58.5637 28.58 58.377 28.748C58.195 28.916 57.8917 29 57.467 29H56.095V24.1H57.383C57.803 24.1 58.1203 24.1863 58.335 24.359C58.5497 24.527 58.657 24.8047 58.657 25.192V27.894ZM58.048 25.129C58.048 24.975 58.0013 24.8537 57.908 24.765C57.8147 24.6717 57.691 24.625 57.537 24.625H56.704V28.475H57.53C57.7073 28.475 57.838 28.4353 57.922 28.356C58.006 28.272 58.048 28.1413 58.048 27.964V25.129ZM59.4996 29V28.489H59.9896V24.611H59.4996V24.1H61.0886V24.611H60.5986V28.489H61.0886V29H59.4996ZM64.1083 29L63.8423 27.761H62.4773L62.2043 29H61.5813L62.7643 24.1H63.5693L64.7313 29H64.1083ZM63.1562 24.562L62.5893 27.236H63.7303L63.1562 24.562Z" fill="black"/>
<path d="M12.125 17.05C12.125 18.4833 11.7917 19.5 11.125 20.1C10.475 20.7 9.39167 21 7.875 21H3.125V3.5H7.575C9.05833 3.5 10.1417 3.8 10.825 4.4C11.525 5 11.875 6 11.875 7.4V8.825C11.875 10.1083 11.4167 11.075 10.5 11.725C11.5833 12.325 12.125 13.35 12.125 14.8V17.05ZM9.7 7.175C9.7 6.54167 9.55 6.08333 9.25 5.8C8.96667 5.51667 8.50833 5.375 7.875 5.375H5.3V10.9H7.875C8.39167 10.9 8.825 10.7333 9.175 10.4C9.525 10.0667 9.7 9.625 9.7 9.075V7.175ZM9.95 14.575C9.95 14.025 9.78333 13.5917 9.45 13.275C9.11667 12.9417 8.675 12.775 8.125 12.775H5.3V19.125H8.1C8.73333 19.125 9.2 18.9833 9.5 18.7C9.8 18.4 9.95 17.9333 9.95 17.3V14.575ZM23.6383 21L22.6883 16.575H17.8133L16.8383 21H14.6133L18.8383 3.5H21.7133L25.8633 21H23.6383ZM20.2383 5.15L18.2133 14.7H22.2883L20.2383 5.15ZM32.375 21C30.925 21 29.8083 20.65 29.025 19.95C28.2583 19.2333 27.875 18.1667 27.875 16.75V7.75C27.875 6.33333 28.2583 5.275 29.025 4.575C29.8083 3.85833 30.925 3.5 32.375 3.5H35.75V5.4H32.125C31.5083 5.4 31.0083 5.58333 30.625 5.95C30.2417 6.31667 30.05 6.75833 30.05 7.275V17.225C30.05 17.7417 30.2417 18.1833 30.625 18.55C31.0083 18.9167 31.5083 19.1 32.125 19.1H34.425V13.675H32.325V11.8H36.5V21H32.375ZM40.3809 21V3.5H48.5809V5.325H42.5559V11.05H47.9559V12.875H42.5559V19.175H48.5809V21H40.3809ZM56.4723 5.4V21H54.2973V5.4H50.4473V3.5H60.3223V5.4H56.4723ZM71.9291 16.75C71.9291 18.1667 71.5374 19.2333 70.7541 19.95C69.9874 20.65 68.8791 21 67.4291 21H66.5791C65.1291 21 64.0124 20.65 63.2291 19.95C62.4624 19.2333 62.0791 18.1667 62.0791 16.75V7.75C62.0791 6.33333 62.4624 5.275 63.2291 4.575C64.0124 3.85833 65.1291 3.5 66.5791 3.5H67.4291C68.8791 3.5 69.9874 3.85833 70.7541 4.575C71.5374 5.275 71.9291 6.33333 71.9291 7.75V16.75ZM69.7541 7.275C69.7541 6.75833 69.5624 6.31667 69.1791 5.95C68.7958 5.58333 68.2958 5.4 67.6791 5.4H66.3291C65.7124 5.4 65.2124 5.58333 64.8291 5.95C64.4458 6.31667 64.2541 6.75833 64.2541 7.275V17.225C64.2541 17.7417 64.4458 18.1833 64.8291 18.55C65.2124 18.9167 65.7124 19.1 66.3291 19.1H67.6791C68.2958 19.1 68.7958 18.9167 69.1791 18.55C69.5624 18.1833 69.7541 17.7417 69.7541 17.225V7.275Z" fill="black"/>
</g>
<defs>
<clipPath id="clip0_1_6">
<rect width="75" height="32" fill="white"/>
</clipPath>
</defs>
</svg>
